<!-- Generated by IcoMoon.io -->
<svg version="1.1" xmlns="http://www.w3.org/2000/svg" width="54" height="32" viewBox="0 0 54 32">
<title>fipt</title>
<path d="M1.318 24.615v-21.483h12.881v2.308h-10.28v7.259h9.315v2.308h-9.315v9.608h-2.601z"></path>
<path d="M17.294 8.056v21.483h-2.601v-21.483h2.601z"></path>
<path d="M20.915 24.615v-16.112h2.476v16.112h-2.476zM22.174 5.818c-0.483 0-0.899-0.164-1.248-0.493-0.343-0.329-0.514-0.724-0.514-1.185s0.171-0.857 0.514-1.185c0.35-0.329 0.766-0.493 1.248-0.493s0.895 0.164 1.238 0.493c0.35 0.329 0.524 0.724 0.524 1.185s-0.175 0.857-0.524 1.185c-0.343 0.329-0.755 0.493-1.238 0.493z"></path>
<path d="M25.226 29.538v-21.483h7.259c1.685 0 3.063 0.304 4.133 0.913 1.077 0.601 1.874 1.416 2.392 2.444s0.776 2.175 0.776 3.441-0.259 2.416-0.776 3.451c-0.511 1.035-1.301 1.86-2.371 2.476-1.070 0.608-2.441 0.913-4.112 0.913h-5.203v-2.308h5.119c1.154 0 2.081-0.199 2.78-0.598s1.206-0.937 1.521-1.615c0.322-0.685 0.482-1.458 0.482-2.318s-0.161-1.629-0.482-2.308c-0.315-0.678-0.825-1.21-1.532-1.594-0.706-0.392-1.643-0.587-2.811-0.587h-4.574v19.175h-2.601z"></path>
<path d="M35.027 2.979v-2.308h16.112v2.308h-6.755v19.175h-2.601v-19.175h-6.755z"></path>
</svg>
